# xmcd
#
# Track frame offsets:
#	150
#	13604
#	35446
#	48836
#	65300
#	80478
#	93535
#	108874
#	126049
#	138524
#	155313
#	168483
#	180905
#	195931
#
# Disc length: 2755 seconds
#
# Revision: 1
# Processed by: cddbd v1.5.2PL0 Copyright (c) Steve Scherf et al.
# Submitted via: audiograbber 1.83.01
#
DISCID=a50ac10e
DTITLE=The Bellamy Brothers - Family Ties
DYEAR=2008
DGENRE=Country
TTITLE0=I Love It
TTITLE1=Drivin' Nowhere
TTITLE2=Redneck Riviera
TTITLE3=Wild and Willin'
TTITLE4=Drive South
TTITLE5=Restless
TTITLE6=Daddy's Got a Shot Gun
TTITLE7=Life Is Like a Rodeo
TTITLE8=Highway Z-18
TTITLE9=Santa Anna Winds
TTITLE10=How Are You Doing with Your Foolin' Around
TTITLE11=Whisper in the Dark
TTITLE12=No Fool Like a Country Fool
TTITLE13=Rockabilly
EXTD=
EXTT0=
EXTT1=
EXTT2=
EXTT3=
EXTT4=
EXTT5=
EXTT6=
EXTT7=
EXTT8=
EXTT9=
EXTT10=
EXTT11=
EXTT12=
EXTT13=
PLAYORDER=
